<svg xmlns="http://www.w3.org/2000/svg" viewBox="0 0 128 128">
  <defs>
    <linearGradient id="grad" x1="0%" y1="0%" x2="100%" y2="100%">
      <stop offset="0%" style="stop-color:#4361ee"/>
      <stop offset="100%" style="stop-color:#7b2cbf"/>
    </linearGradient>
  </defs>
  <!-- Map pin shape -->
  <path fill="url(#grad)" d="M64 8C40.8 8 22 26.8 22 50c0 31.5 38 66.5 40 68.5a3 3 0 0 0 4 0c2-2 40-37 40-68.5C106 26.8 87.2 8 64 8z"/>
  <!-- White circle inside -->
  <circle cx="64" cy="48" r="20" fill="white"/>
  <!-- Globe lines inside -->
  <path fill="none" stroke="#4361ee" stroke-width="2" d="M64 28v40M44 48h40M49 33a24 24 0 0 0 0 30M79 33a24 24 0 0 1 0 30"/>
</svg>
